%
M48
M72
T24C0.02400
T31C0.03100
T32C0.03200
T39C0.03900
T79C0.07900
%
T24
X105000Y65000
X105000Y95000
X80000Y120000
X60000Y120000
X50000Y150000
X30000Y150000
X70000Y170000
X70000Y190000
X90000Y215000
X110000Y210000
X110000Y230000
X130000Y230000
X130000Y260000
X120000Y275000
X100000Y275000
X90000Y260000
X180000Y185000
X200000Y205000
X250000Y205000
X260000Y185000
X320000Y210000
X340000Y220000
X320000Y230000
X340000Y240000
X330000Y275000
X310000Y275000
X360000Y190000
X360000Y170000
X380000Y150000
X400000Y150000
X370000Y120000
X350000Y120000
X330000Y140000
X330000Y160000
X260000Y105000
X180000Y95000
X160000Y105000
X160000Y65000
X100000Y140000
X100000Y160000
T31
X100000Y160000
X100000Y140000
X80000Y120000
X60000Y120000
X50000Y150000
X30000Y150000
X70000Y170000
X70000Y190000
X110000Y210000
X110000Y230000
X100000Y275000
X120000Y275000
X180000Y238000
X190000Y238000
X200000Y238000
X210000Y238000
X220000Y238000
X230000Y238000
X240000Y238000
X250000Y238000
X310000Y275000
X330000Y275000
X320000Y230000
X320000Y210000
X360000Y190000
X360000Y170000
X380000Y150000
X400000Y150000
X370000Y120000
X350000Y120000
X330000Y140000
X330000Y160000
T32
X300000Y115000
X285000Y105000
X270000Y95000
X300000Y75000
X285000Y65000
X295000Y55000
X305000Y55000
X315000Y55000
X325000Y55000
X315000Y25000
X270000Y55000
X255000Y30000
X230000Y55000
X230000Y65000
X230000Y75000
X230000Y85000
X230000Y95000
X230000Y105000
X230000Y115000
X230000Y125000
X230000Y135000
X230000Y145000
X230000Y155000
X230000Y165000
X230000Y175000
X230000Y185000
X200000Y185000
X200000Y175000
X200000Y165000
X200000Y155000
X200000Y145000
X200000Y135000
X200000Y125000
X200000Y115000
X200000Y105000
X200000Y95000
X200000Y85000
X200000Y75000
X200000Y65000
X200000Y55000
X215000Y30000
X215000Y20000
X215000Y10000
T39
X210000Y285000
X200000Y285000
X190000Y285000
X180000Y285000
X170000Y285000
X220000Y285000
X230000Y285000
X240000Y285000
X250000Y285000
X260000Y285000
T79
X274055Y236654
X155945Y236654
X155945Y36000
X274055Y36000
M30
