G75*
%MOIN*%
%OFA0B0*%
%FSLAX25Y25*%
%IPPOS*%
%LPD*%
%AMOC8*
5,1,8,0,0,1.08239X$1,22.5*
%
%ADD10C,0.00600*%
%ADD11C,0.05200*%
%ADD12OC8,0.05200*%
%ADD13R,0.05150X0.05150*%
%ADD14C,0.05150*%
%ADD15C,0.05150*%
%ADD16C,0.05937*%
%ADD17C,0.05000*%
%ADD18R,0.05000X0.05000*%
%ADD19R,0.03962X0.03962*%
D10*
X0065389Y0050035D02*
X0065389Y0051545D01*
X0065389Y0050035D02*
X0066899Y0048525D01*
X0068409Y0048525D01*
X0071429Y0051545D01*
X0071429Y0053054D01*
X0069919Y0054564D01*
X0068409Y0054564D01*
X0065361Y0054592D02*
X0063851Y0053083D01*
X0062342Y0053083D01*
X0060832Y0054592D01*
X0060832Y0056102D01*
X0062342Y0057612D01*
X0063851Y0057612D01*
X0065361Y0056102D01*
X0065361Y0054592D01*
X0061558Y0059905D02*
X0059294Y0062170D01*
X0057784Y0062170D01*
X0055519Y0059905D01*
X0053981Y0062953D02*
X0052471Y0062953D01*
X0053981Y0062953D02*
X0057001Y0065972D01*
X0057001Y0064463D02*
X0055491Y0065972D01*
X0053962Y0067501D02*
X0050943Y0064482D01*
X0052452Y0065991D02*
X0052452Y0069011D01*
X0051698Y0069766D01*
X0049409Y0070544D02*
X0049409Y0072054D01*
X0047900Y0073564D01*
X0046390Y0073564D01*
X0044880Y0072054D01*
X0044880Y0070544D01*
X0046390Y0069034D01*
X0047900Y0069034D01*
X0049409Y0070544D01*
X0042587Y0072837D02*
X0041077Y0074347D01*
X0041832Y0073592D02*
X0046361Y0078121D01*
X0047116Y0077367D01*
X0044078Y0080405D02*
X0043323Y0081160D01*
X0038794Y0076631D01*
X0039549Y0075876D02*
X0038039Y0077385D01*
X0037265Y0079669D02*
X0035755Y0079669D01*
X0034245Y0081179D01*
X0035000Y0083443D02*
X0038020Y0080424D01*
X0037265Y0079669D02*
X0038775Y0081179D01*
X0038775Y0082689D01*
X0037265Y0084198D01*
X0035755Y0084198D01*
X0035000Y0083443D01*
X0033462Y0084982D02*
X0033462Y0088001D01*
X0032707Y0088756D01*
X0034972Y0086491D02*
X0031952Y0083472D01*
X0022059Y0099405D02*
X0017529Y0097895D01*
X0019039Y0102424D01*
X0017501Y0103962D02*
X0017501Y0106982D01*
X0012972Y0102453D01*
X0014481Y0100943D02*
X0011462Y0103962D01*
X0009924Y0105500D02*
X0009169Y0106255D01*
X0009924Y0107010D01*
X0010679Y0106255D01*
X0009924Y0105500D01*
X0007645Y0107779D02*
X0004625Y0110799D01*
X0006135Y0109289D02*
X0010665Y0113818D01*
X0010665Y0110799D01*
X0005352Y0114602D02*
X0003087Y0116866D01*
X0001578Y0116866D01*
X0000823Y0116111D01*
X0000823Y0114602D01*
X0003087Y0112337D01*
X0007617Y0116866D01*
X0005352Y0119131D01*
X0003842Y0119131D01*
X0003087Y0118376D01*
X0003087Y0116866D01*
X0061558Y0059905D02*
X0058539Y0056885D01*
X0071457Y0048497D02*
X0074476Y0045477D01*
X0076015Y0043939D02*
X0074505Y0042429D01*
X0074505Y0040920D01*
X0076015Y0039410D01*
X0077524Y0039410D01*
X0080544Y0042429D01*
X0080544Y0043939D01*
X0079034Y0045449D01*
X0077524Y0045449D01*
X0076015Y0043939D02*
X0077524Y0042429D01*
X0080572Y0039381D02*
X0079062Y0037872D01*
X0079062Y0036362D01*
X0080572Y0034852D01*
X0082082Y0034852D01*
X0085102Y0037872D01*
X0085102Y0039381D01*
X0083592Y0040891D01*
X0082082Y0040891D01*
X0080572Y0039381D02*
X0082082Y0037872D01*
X0087394Y0037088D02*
X0082865Y0032559D01*
X0085885Y0029540D02*
X0090414Y0034069D01*
X0087394Y0034069D01*
X0087394Y0037088D01*
X0091197Y0031776D02*
X0089687Y0030266D01*
X0089687Y0028756D01*
X0091952Y0026492D01*
X0090442Y0024982D02*
X0094972Y0029511D01*
X0092707Y0031776D01*
X0091197Y0031776D01*
X0096510Y0027973D02*
X0091980Y0023444D01*
X0095000Y0020424D02*
X0099529Y0024954D01*
X0096510Y0024954D01*
X0096510Y0027973D01*
D11*
X0197400Y0055000D02*
X0202600Y0055000D01*
X0202600Y0065000D02*
X0197400Y0065000D01*
X0197400Y0075000D02*
X0202600Y0075000D01*
X0202600Y0085000D02*
X0197400Y0085000D01*
X0197400Y0095000D02*
X0202600Y0095000D01*
X0202600Y0105000D02*
X0197400Y0105000D01*
X0197400Y0115000D02*
X0202600Y0115000D01*
X0202600Y0125000D02*
X0197400Y0125000D01*
X0197400Y0135000D02*
X0202600Y0135000D01*
X0202600Y0145000D02*
X0197400Y0145000D01*
X0197400Y0155000D02*
X0202600Y0155000D01*
X0202600Y0165000D02*
X0197400Y0165000D01*
X0197400Y0175000D02*
X0202600Y0175000D01*
X0202600Y0185000D02*
X0197400Y0185000D01*
X0227400Y0185000D02*
X0232600Y0185000D01*
X0232600Y0175000D02*
X0227400Y0175000D01*
X0227400Y0165000D02*
X0232600Y0165000D01*
X0232600Y0155000D02*
X0227400Y0155000D01*
X0227400Y0145000D02*
X0232600Y0145000D01*
X0232600Y0135000D02*
X0227400Y0135000D01*
X0227400Y0125000D02*
X0232600Y0125000D01*
X0232600Y0115000D02*
X0227400Y0115000D01*
X0227400Y0105000D02*
X0232600Y0105000D01*
X0232600Y0095000D02*
X0227400Y0095000D01*
X0227400Y0085000D02*
X0232600Y0085000D01*
X0232600Y0075000D02*
X0227400Y0075000D01*
X0227400Y0065000D02*
X0232600Y0065000D01*
X0232600Y0055000D02*
X0227400Y0055000D01*
X0295000Y0057600D02*
X0295000Y0052400D01*
X0305000Y0052400D02*
X0305000Y0057600D01*
X0315000Y0057600D02*
X0315000Y0052400D01*
X0325000Y0052400D02*
X0325000Y0057600D01*
X0315000Y0027600D02*
X0315000Y0022400D01*
D12*
X0270000Y0055000D03*
X0285000Y0065000D03*
X0300000Y0075000D03*
X0270000Y0095000D03*
X0285000Y0105000D03*
X0300000Y0115000D03*
X0255000Y0030000D03*
X0215000Y0030000D03*
X0215000Y0020000D03*
X0215000Y0010000D03*
D13*
X0180000Y0238000D03*
D14*
X0190000Y0238000D03*
X0200000Y0238000D03*
X0210000Y0238000D03*
X0220000Y0238000D03*
X0230000Y0238000D03*
X0240000Y0238000D03*
X0250000Y0238000D03*
D15*
X0310000Y0272425D02*
X0310000Y0277575D01*
X0330000Y0277575D02*
X0330000Y0272425D01*
X0322575Y0230000D02*
X0317425Y0230000D01*
X0317425Y0210000D02*
X0322575Y0210000D01*
X0357425Y0190000D02*
X0362575Y0190000D01*
X0362575Y0170000D02*
X0357425Y0170000D01*
X0332575Y0160000D02*
X0327425Y0160000D01*
X0327425Y0140000D02*
X0332575Y0140000D01*
X0350000Y0122575D02*
X0350000Y0117425D01*
X0370000Y0117425D02*
X0370000Y0122575D01*
X0380000Y0147425D02*
X0380000Y0152575D01*
X0400000Y0152575D02*
X0400000Y0147425D01*
X0120000Y0272425D02*
X0120000Y0277575D01*
X0100000Y0277575D02*
X0100000Y0272425D01*
X0107425Y0230000D02*
X0112575Y0230000D01*
X0112575Y0210000D02*
X0107425Y0210000D01*
X0072575Y0190000D02*
X0067425Y0190000D01*
X0067425Y0170000D02*
X0072575Y0170000D01*
X0097425Y0160000D02*
X0102575Y0160000D01*
X0102575Y0140000D02*
X0097425Y0140000D01*
X0080000Y0122575D02*
X0080000Y0117425D01*
X0060000Y0117425D02*
X0060000Y0122575D01*
X0050000Y0147425D02*
X0050000Y0152575D01*
X0030000Y0152575D02*
X0030000Y0147425D01*
D16*
X0170000Y0282031D02*
X0170000Y0287969D01*
X0180000Y0287969D02*
X0180000Y0282031D01*
X0190000Y0282031D02*
X0190000Y0287969D01*
X0200000Y0287969D02*
X0200000Y0282031D01*
X0210000Y0282031D02*
X0210000Y0287969D01*
X0220000Y0287969D02*
X0220000Y0282031D01*
X0230000Y0282031D02*
X0230000Y0287969D01*
X0240000Y0287969D02*
X0240000Y0282031D01*
X0250000Y0282031D02*
X0250000Y0287969D01*
X0260000Y0287969D02*
X0260000Y0282031D01*
D17*
X0260000Y0285000D02*
X0260000Y0255000D01*
X0260000Y0185000D01*
X0240000Y0190000D02*
X0235000Y0185000D01*
X0230000Y0185000D01*
X0240000Y0190000D02*
X0240000Y0238000D01*
X0230000Y0238000D02*
X0230000Y0230000D01*
X0220000Y0220000D01*
X0220000Y0175000D01*
X0230000Y0175000D01*
X0230000Y0165000D02*
X0255000Y0165000D01*
X0310000Y0220000D01*
X0340000Y0220000D01*
X0345000Y0230000D02*
X0380000Y0195000D01*
X0380000Y0175000D01*
X0375000Y0170000D01*
X0360000Y0170000D01*
X0350000Y0170000D01*
X0340000Y0160000D01*
X0330000Y0160000D01*
X0330000Y0140000D02*
X0290000Y0140000D01*
X0275000Y0125000D01*
X0230000Y0125000D01*
X0230000Y0115000D02*
X0280000Y0115000D01*
X0290000Y0125000D01*
X0310000Y0125000D01*
X0315000Y0120000D01*
X0350000Y0120000D01*
X0360000Y0105000D02*
X0335000Y0105000D01*
X0335000Y0010000D01*
X0215000Y0010000D01*
X0160000Y0010000D01*
X0105000Y0065000D01*
X0075000Y0085000D02*
X0020000Y0140000D01*
X0020000Y0160000D01*
X0100000Y0240000D01*
X0140000Y0240000D01*
X0160000Y0260000D01*
X0160000Y0295000D01*
X0165000Y0300000D01*
X0195000Y0300000D01*
X0200000Y0295000D01*
X0200000Y0285000D01*
X0215000Y0270000D02*
X0225000Y0270000D01*
X0230000Y0275000D01*
X0230000Y0285000D01*
X0220000Y0285000D02*
X0220000Y0300000D01*
X0210000Y0310000D01*
X0160000Y0310000D01*
X0150000Y0300000D01*
X0150000Y0265000D01*
X0135000Y0250000D01*
X0095000Y0250000D01*
X0010000Y0165000D01*
X0010000Y0135000D01*
X0070000Y0075000D01*
X0175000Y0075000D01*
X0185000Y0065000D01*
X0200000Y0065000D01*
X0200000Y0075000D02*
X0190000Y0075000D01*
X0180000Y0085000D01*
X0075000Y0085000D01*
X0080000Y0095000D02*
X0105000Y0095000D01*
X0180000Y0095000D01*
X0200000Y0095000D01*
X0200000Y0105000D02*
X0160000Y0105000D01*
X0150000Y0115000D02*
X0145000Y0120000D01*
X0080000Y0120000D01*
X0060000Y0120000D02*
X0060000Y0115000D01*
X0080000Y0095000D01*
X0060000Y0120000D02*
X0060000Y0125000D01*
X0055000Y0130000D01*
X0045000Y0130000D01*
X0030000Y0145000D01*
X0030000Y0150000D01*
X0030000Y0155000D01*
X0045000Y0170000D01*
X0070000Y0170000D01*
X0080000Y0170000D01*
X0090000Y0160000D01*
X0100000Y0160000D01*
X0100000Y0140000D02*
X0140000Y0140000D01*
X0155000Y0125000D01*
X0200000Y0125000D01*
X0200000Y0115000D02*
X0150000Y0115000D01*
X0160000Y0135000D02*
X0145000Y0150000D01*
X0050000Y0150000D01*
X0070000Y0190000D02*
X0120000Y0190000D01*
X0165000Y0145000D01*
X0200000Y0145000D01*
X0200000Y0135000D02*
X0160000Y0135000D01*
X0170000Y0155000D02*
X0115000Y0210000D01*
X0110000Y0210000D01*
X0100000Y0220000D02*
X0120000Y0220000D01*
X0175000Y0165000D01*
X0200000Y0165000D01*
X0200000Y0155000D02*
X0170000Y0155000D01*
X0180000Y0185000D02*
X0180000Y0225000D01*
X0145000Y0225000D01*
X0140000Y0230000D01*
X0130000Y0230000D01*
X0110000Y0230000D01*
X0100000Y0220000D02*
X0095000Y0215000D01*
X0090000Y0215000D01*
X0090000Y0260000D02*
X0100000Y0260000D01*
X0100000Y0275000D01*
X0120000Y0275000D02*
X0120000Y0260000D01*
X0130000Y0260000D01*
X0170000Y0250000D02*
X0180000Y0240000D01*
X0180000Y0238000D01*
X0180000Y0225000D01*
X0190000Y0230000D02*
X0210000Y0210000D01*
X0210000Y0110000D01*
X0205000Y0105000D01*
X0200000Y0105000D01*
X0230000Y0085000D02*
X0240000Y0085000D01*
X0260000Y0105000D01*
X0270000Y0095000D02*
X0275000Y0095000D01*
X0285000Y0105000D01*
X0290000Y0105000D01*
X0300000Y0115000D01*
X0305000Y0115000D01*
X0315000Y0105000D01*
X0335000Y0105000D01*
X0360000Y0105000D02*
X0370000Y0115000D01*
X0370000Y0120000D01*
X0370000Y0125000D01*
X0375000Y0130000D01*
X0385000Y0130000D01*
X0400000Y0145000D01*
X0400000Y0150000D01*
X0400000Y0155000D01*
X0380000Y0175000D01*
X0360000Y0190000D02*
X0310000Y0190000D01*
X0265000Y0145000D01*
X0230000Y0145000D01*
X0230000Y0135000D02*
X0270000Y0135000D01*
X0285000Y0150000D01*
X0380000Y0150000D01*
X0320000Y0210000D02*
X0315000Y0210000D01*
X0260000Y0155000D01*
X0230000Y0155000D01*
X0200000Y0185000D02*
X0200000Y0205000D01*
X0190000Y0230000D02*
X0190000Y0238000D01*
X0190000Y0245000D01*
X0180000Y0255000D01*
X0180000Y0285000D01*
X0170000Y0285000D02*
X0170000Y0250000D01*
X0200000Y0255000D02*
X0200000Y0238000D01*
X0210000Y0238000D02*
X0210000Y0250000D01*
X0220000Y0260000D01*
X0245000Y0260000D01*
X0250000Y0265000D01*
X0250000Y0285000D01*
X0215000Y0270000D02*
X0200000Y0255000D01*
X0220000Y0245000D02*
X0220000Y0238000D01*
X0220000Y0245000D02*
X0225000Y0250000D01*
X0255000Y0250000D01*
X0260000Y0255000D01*
X0250000Y0238000D02*
X0250000Y0205000D01*
X0310000Y0235000D02*
X0310000Y0275000D01*
X0330000Y0275000D02*
X0330000Y0250000D01*
X0340000Y0240000D01*
X0345000Y0230000D02*
X0320000Y0230000D01*
X0315000Y0230000D01*
X0310000Y0235000D01*
X0315000Y0075000D02*
X0300000Y0075000D01*
X0230000Y0075000D01*
X0230000Y0065000D02*
X0285000Y0065000D01*
X0305000Y0065000D01*
X0305000Y0055000D01*
X0295000Y0055000D02*
X0270000Y0055000D01*
X0230000Y0055000D01*
X0235000Y0040000D02*
X0235000Y0020000D01*
X0315000Y0020000D01*
X0315000Y0025000D01*
X0325000Y0045000D02*
X0325000Y0055000D01*
X0325000Y0045000D02*
X0265000Y0045000D01*
X0255000Y0035000D01*
X0255000Y0030000D01*
X0235000Y0040000D02*
X0185000Y0040000D01*
X0160000Y0065000D01*
X0215000Y0030000D02*
X0215000Y0020000D01*
X0315000Y0055000D02*
X0315000Y0075000D01*
D18*
X0260000Y0105000D03*
X0180000Y0095000D03*
X0160000Y0105000D03*
X0160000Y0065000D03*
X0105000Y0065000D03*
X0105000Y0095000D03*
X0180000Y0185000D03*
X0130000Y0230000D03*
X0130000Y0260000D03*
X0090000Y0260000D03*
X0090000Y0215000D03*
X0260000Y0185000D03*
X0340000Y0220000D03*
X0340000Y0240000D03*
D19*
X0250000Y0205000D03*
X0200000Y0205000D03*
M02*
