G75*
%MOIN*%
%OFA0B0*%
%FSLAX25Y25*%
%IPPOS*%
%LPD*%
%AMOC8*
5,1,8,0,0,1.08239X$1,22.5*
%
%ADD10C,0.05200*%
%ADD11OC8,0.05200*%
%ADD12R,0.05150X0.05150*%
%ADD13C,0.05150*%
%ADD14C,0.05150*%
%ADD15C,0.05937*%
%ADD16R,0.05000X0.05000*%
%ADD17C,0.05000*%
%ADD18R,0.03962X0.03962*%
D10*
X0197400Y0055000D02*
X0202600Y0055000D01*
X0202600Y0065000D02*
X0197400Y0065000D01*
X0197400Y0075000D02*
X0202600Y0075000D01*
X0202600Y0085000D02*
X0197400Y0085000D01*
X0197400Y0095000D02*
X0202600Y0095000D01*
X0202600Y0105000D02*
X0197400Y0105000D01*
X0197400Y0115000D02*
X0202600Y0115000D01*
X0202600Y0125000D02*
X0197400Y0125000D01*
X0197400Y0135000D02*
X0202600Y0135000D01*
X0202600Y0145000D02*
X0197400Y0145000D01*
X0197400Y0155000D02*
X0202600Y0155000D01*
X0202600Y0165000D02*
X0197400Y0165000D01*
X0197400Y0175000D02*
X0202600Y0175000D01*
X0202600Y0185000D02*
X0197400Y0185000D01*
X0227400Y0185000D02*
X0232600Y0185000D01*
X0232600Y0175000D02*
X0227400Y0175000D01*
X0227400Y0165000D02*
X0232600Y0165000D01*
X0232600Y0155000D02*
X0227400Y0155000D01*
X0227400Y0145000D02*
X0232600Y0145000D01*
X0232600Y0135000D02*
X0227400Y0135000D01*
X0227400Y0125000D02*
X0232600Y0125000D01*
X0232600Y0115000D02*
X0227400Y0115000D01*
X0227400Y0105000D02*
X0232600Y0105000D01*
X0232600Y0095000D02*
X0227400Y0095000D01*
X0227400Y0085000D02*
X0232600Y0085000D01*
X0232600Y0075000D02*
X0227400Y0075000D01*
X0227400Y0065000D02*
X0232600Y0065000D01*
X0232600Y0055000D02*
X0227400Y0055000D01*
X0295000Y0057600D02*
X0295000Y0052400D01*
X0305000Y0052400D02*
X0305000Y0057600D01*
X0315000Y0057600D02*
X0315000Y0052400D01*
X0325000Y0052400D02*
X0325000Y0057600D01*
X0315000Y0027600D02*
X0315000Y0022400D01*
D11*
X0270000Y0055000D03*
X0285000Y0065000D03*
X0300000Y0075000D03*
X0270000Y0095000D03*
X0285000Y0105000D03*
X0300000Y0115000D03*
X0255000Y0030000D03*
X0215000Y0030000D03*
X0215000Y0020000D03*
X0215000Y0010000D03*
D12*
X0180000Y0238000D03*
D13*
X0190000Y0238000D03*
X0200000Y0238000D03*
X0210000Y0238000D03*
X0220000Y0238000D03*
X0230000Y0238000D03*
X0240000Y0238000D03*
X0250000Y0238000D03*
D14*
X0310000Y0272425D02*
X0310000Y0277575D01*
X0330000Y0277575D02*
X0330000Y0272425D01*
X0322575Y0230000D02*
X0317425Y0230000D01*
X0317425Y0210000D02*
X0322575Y0210000D01*
X0357425Y0190000D02*
X0362575Y0190000D01*
X0362575Y0170000D02*
X0357425Y0170000D01*
X0332575Y0160000D02*
X0327425Y0160000D01*
X0327425Y0140000D02*
X0332575Y0140000D01*
X0350000Y0122575D02*
X0350000Y0117425D01*
X0370000Y0117425D02*
X0370000Y0122575D01*
X0380000Y0147425D02*
X0380000Y0152575D01*
X0400000Y0152575D02*
X0400000Y0147425D01*
X0120000Y0272425D02*
X0120000Y0277575D01*
X0100000Y0277575D02*
X0100000Y0272425D01*
X0107425Y0230000D02*
X0112575Y0230000D01*
X0112575Y0210000D02*
X0107425Y0210000D01*
X0072575Y0190000D02*
X0067425Y0190000D01*
X0067425Y0170000D02*
X0072575Y0170000D01*
X0097425Y0160000D02*
X0102575Y0160000D01*
X0102575Y0140000D02*
X0097425Y0140000D01*
X0080000Y0122575D02*
X0080000Y0117425D01*
X0060000Y0117425D02*
X0060000Y0122575D01*
X0050000Y0147425D02*
X0050000Y0152575D01*
X0030000Y0152575D02*
X0030000Y0147425D01*
D15*
X0170000Y0282031D02*
X0170000Y0287969D01*
X0180000Y0287969D02*
X0180000Y0282031D01*
X0190000Y0282031D02*
X0190000Y0287969D01*
X0200000Y0287969D02*
X0200000Y0282031D01*
X0210000Y0282031D02*
X0210000Y0287969D01*
X0220000Y0287969D02*
X0220000Y0282031D01*
X0230000Y0282031D02*
X0230000Y0287969D01*
X0240000Y0287969D02*
X0240000Y0282031D01*
X0250000Y0282031D02*
X0250000Y0287969D01*
X0260000Y0287969D02*
X0260000Y0282031D01*
D16*
X0105000Y0065000D03*
X0105000Y0095000D03*
X0160000Y0105000D03*
X0180000Y0095000D03*
X0160000Y0065000D03*
X0260000Y0105000D03*
X0260000Y0185000D03*
X0340000Y0220000D03*
X0340000Y0240000D03*
X0180000Y0185000D03*
X0130000Y0230000D03*
X0130000Y0260000D03*
X0090000Y0260000D03*
X0090000Y0215000D03*
D17*
X0090000Y0260000D01*
X0130000Y0260000D02*
X0130000Y0230000D01*
X0180000Y0185000D02*
X0180000Y0095000D01*
X0160000Y0105000D02*
X0160000Y0065000D01*
X0105000Y0065000D02*
X0105000Y0095000D01*
X0200000Y0205000D02*
X0250000Y0205000D01*
X0260000Y0185000D02*
X0260000Y0105000D01*
X0340000Y0220000D02*
X0340000Y0240000D01*
D18*
X0250000Y0205000D03*
X0200000Y0205000D03*
M02*
