G75*
%MOIN*%
%OFA0B0*%
%FSLAX25Y25*%
%IPPOS*%
%LPD*%
%AMOC8*
5,1,8,0,0,1.08239X$1,22.5*
%
%ADD10C,0.05600*%
%ADD11OC8,0.05937*%
%ADD12C,0.05937*%
%ADD13C,0.07874*%
D10*
X0060000Y0272200D02*
X0060000Y0277800D01*
X0070000Y0277800D02*
X0070000Y0272200D01*
D11*
X0105000Y0055000D03*
X0105000Y0065000D03*
X0105000Y0075000D03*
X0105000Y0085000D03*
X0105000Y0095000D03*
X0115000Y0095000D03*
X0115000Y0085000D03*
X0115000Y0075000D03*
X0115000Y0065000D03*
X0115000Y0055000D03*
X0115000Y0145000D03*
X0115000Y0155000D03*
X0115000Y0165000D03*
X0115000Y0175000D03*
X0115000Y0185000D03*
X0105000Y0185000D03*
X0105000Y0175000D03*
X0105000Y0165000D03*
X0105000Y0155000D03*
X0105000Y0145000D03*
X0100000Y0240000D03*
X0100000Y0250000D03*
X0090000Y0250000D03*
X0090000Y0240000D03*
X0110000Y0240000D03*
X0110000Y0250000D03*
X0120000Y0250000D03*
X0120000Y0240000D03*
X0130000Y0240000D03*
X0130000Y0250000D03*
X0140000Y0250000D03*
X0140000Y0240000D03*
X0150000Y0240000D03*
X0150000Y0250000D03*
X0160000Y0250000D03*
X0160000Y0240000D03*
X0170000Y0240000D03*
X0170000Y0250000D03*
X0180000Y0250000D03*
X0180000Y0240000D03*
X0190000Y0240000D03*
X0190000Y0250000D03*
X0200000Y0250000D03*
X0200000Y0240000D03*
X0210000Y0240000D03*
X0210000Y0250000D03*
X0220000Y0250000D03*
X0220000Y0240000D03*
X0230000Y0240000D03*
X0230000Y0250000D03*
X0240000Y0250000D03*
X0240000Y0240000D03*
X0250000Y0240000D03*
X0250000Y0250000D03*
X0260000Y0250000D03*
X0260000Y0240000D03*
X0270000Y0240000D03*
X0270000Y0250000D03*
X0280000Y0250000D03*
X0280000Y0240000D03*
X0235000Y0185000D03*
X0225000Y0185000D03*
X0225000Y0175000D03*
X0225000Y0165000D03*
X0225000Y0155000D03*
X0235000Y0155000D03*
X0235000Y0165000D03*
X0235000Y0175000D03*
X0235000Y0145000D03*
X0225000Y0145000D03*
X0225000Y0095000D03*
X0235000Y0095000D03*
X0235000Y0085000D03*
X0235000Y0075000D03*
X0235000Y0065000D03*
X0225000Y0065000D03*
X0225000Y0075000D03*
X0225000Y0085000D03*
X0225000Y0055000D03*
X0235000Y0055000D03*
D12*
X0050000Y0157031D02*
X0050000Y0162969D01*
X0040000Y0162969D02*
X0040000Y0157031D01*
X0030000Y0157031D02*
X0030000Y0162969D01*
X0020000Y0162969D02*
X0020000Y0157031D01*
D13*
X0023937Y0242795D02*
X0016063Y0242795D01*
X0038898Y0251063D02*
X0038898Y0258937D01*
X0023937Y0266811D02*
X0016063Y0266811D01*
M02*
