G75*
%MOIN*%
%OFA0B0*%
%FSLAX25Y25*%
%IPPOS*%
%LPD*%
%AMOC8*
5,1,8,0,0,1.08239X$1,22.5*
%
%ADD10C,0.00600*%
%ADD11C,0.05600*%
%ADD12OC8,0.05937*%
%ADD13C,0.05937*%
%ADD14C,0.07874*%
%ADD15R,0.03962X0.03962*%
%ADD16C,0.05000*%
%ADD17C,0.02400*%
D10*
X0295295Y0077835D02*
X0297430Y0079970D01*
X0295295Y0082106D01*
X0301700Y0082106D01*
X0301700Y0084281D02*
X0295295Y0084281D01*
X0295295Y0087484D01*
X0296362Y0088551D01*
X0298497Y0088551D01*
X0299565Y0087484D01*
X0299565Y0084281D01*
X0301700Y0090726D02*
X0295295Y0090726D01*
X0297430Y0092861D01*
X0295295Y0094997D01*
X0301700Y0094997D01*
X0300632Y0097172D02*
X0301700Y0098239D01*
X0301700Y0100375D01*
X0300632Y0101442D01*
X0298497Y0101442D01*
X0298497Y0099307D01*
X0296362Y0101442D02*
X0295295Y0100375D01*
X0295295Y0098239D01*
X0296362Y0097172D01*
X0300632Y0097172D01*
X0300632Y0103617D02*
X0296362Y0103617D01*
X0295295Y0104685D01*
X0295295Y0106820D01*
X0296362Y0107888D01*
X0298497Y0107888D02*
X0298497Y0105752D01*
X0298497Y0107888D02*
X0300632Y0107888D01*
X0301700Y0106820D01*
X0301700Y0104685D01*
X0300632Y0103617D01*
X0298497Y0110063D02*
X0298497Y0114333D01*
X0298497Y0116508D02*
X0298497Y0120779D01*
X0297430Y0120779D02*
X0301700Y0120779D01*
X0300632Y0122954D02*
X0298497Y0122954D01*
X0297430Y0124021D01*
X0297430Y0127224D01*
X0295295Y0127224D02*
X0301700Y0127224D01*
X0301700Y0124021D01*
X0300632Y0122954D01*
X0297430Y0120779D02*
X0295295Y0118643D01*
X0297430Y0116508D01*
X0301700Y0116508D01*
X0300632Y0129399D02*
X0299565Y0130467D01*
X0299565Y0133670D01*
X0298497Y0133670D02*
X0301700Y0133670D01*
X0301700Y0130467D01*
X0300632Y0129399D01*
X0297430Y0130467D02*
X0297430Y0132602D01*
X0298497Y0133670D01*
X0297430Y0135845D02*
X0297430Y0139048D01*
X0298497Y0140115D01*
X0300632Y0140115D01*
X0301700Y0139048D01*
X0301700Y0135845D01*
X0303835Y0135845D02*
X0297430Y0135845D01*
X0297430Y0142290D02*
X0297430Y0144425D01*
X0296362Y0143358D02*
X0300632Y0143358D01*
X0301700Y0144425D01*
X0300632Y0146587D02*
X0298497Y0146587D01*
X0297430Y0147655D01*
X0297430Y0149790D01*
X0298497Y0150858D01*
X0299565Y0150858D01*
X0299565Y0146587D01*
X0300632Y0146587D02*
X0301700Y0147655D01*
X0301700Y0149790D01*
X0301700Y0153033D02*
X0297430Y0153033D01*
X0299565Y0153033D02*
X0297430Y0155168D01*
X0297430Y0156236D01*
X0297430Y0171295D02*
X0301700Y0173430D01*
X0297430Y0175565D01*
X0297430Y0177741D02*
X0295295Y0179876D01*
X0301700Y0179876D01*
X0301700Y0177741D02*
X0301700Y0182011D01*
X0301700Y0184186D02*
X0301700Y0185254D01*
X0300632Y0185254D01*
X0300632Y0184186D01*
X0301700Y0184186D01*
X0301700Y0187409D02*
X0301700Y0191679D01*
X0301700Y0189544D02*
X0295295Y0189544D01*
X0297430Y0187409D01*
X0298497Y0193854D02*
X0298497Y0197057D01*
X0299565Y0198125D01*
X0300632Y0198125D01*
X0301700Y0197057D01*
X0301700Y0193854D01*
X0295295Y0193854D01*
X0295295Y0197057D01*
X0296362Y0198125D01*
X0297430Y0198125D01*
X0298497Y0197057D01*
X0295295Y0077835D02*
X0301700Y0077835D01*
D11*
X0070000Y0272200D02*
X0070000Y0277800D01*
X0060000Y0277800D02*
X0060000Y0272200D01*
D12*
X0090000Y0250000D03*
X0090000Y0240000D03*
X0100000Y0240000D03*
X0100000Y0250000D03*
X0110000Y0250000D03*
X0110000Y0240000D03*
X0120000Y0240000D03*
X0120000Y0250000D03*
X0130000Y0250000D03*
X0130000Y0240000D03*
X0140000Y0240000D03*
X0140000Y0250000D03*
X0150000Y0250000D03*
X0150000Y0240000D03*
X0160000Y0240000D03*
X0160000Y0250000D03*
X0170000Y0250000D03*
X0170000Y0240000D03*
X0180000Y0240000D03*
X0180000Y0250000D03*
X0190000Y0250000D03*
X0190000Y0240000D03*
X0200000Y0240000D03*
X0200000Y0250000D03*
X0210000Y0250000D03*
X0210000Y0240000D03*
X0220000Y0240000D03*
X0220000Y0250000D03*
X0230000Y0250000D03*
X0230000Y0240000D03*
X0240000Y0240000D03*
X0240000Y0250000D03*
X0250000Y0250000D03*
X0250000Y0240000D03*
X0260000Y0240000D03*
X0260000Y0250000D03*
X0270000Y0250000D03*
X0270000Y0240000D03*
X0280000Y0240000D03*
X0280000Y0250000D03*
X0235000Y0185000D03*
X0225000Y0185000D03*
X0225000Y0175000D03*
X0225000Y0165000D03*
X0225000Y0155000D03*
X0235000Y0155000D03*
X0235000Y0165000D03*
X0235000Y0175000D03*
X0235000Y0145000D03*
X0225000Y0145000D03*
X0225000Y0095000D03*
X0235000Y0095000D03*
X0235000Y0085000D03*
X0235000Y0075000D03*
X0235000Y0065000D03*
X0225000Y0065000D03*
X0225000Y0075000D03*
X0225000Y0085000D03*
X0225000Y0055000D03*
X0235000Y0055000D03*
X0115000Y0055000D03*
X0115000Y0065000D03*
X0115000Y0075000D03*
X0115000Y0085000D03*
X0115000Y0095000D03*
X0105000Y0095000D03*
X0105000Y0085000D03*
X0105000Y0075000D03*
X0105000Y0065000D03*
X0105000Y0055000D03*
X0105000Y0145000D03*
X0105000Y0155000D03*
X0105000Y0165000D03*
X0105000Y0175000D03*
X0105000Y0185000D03*
X0115000Y0185000D03*
X0115000Y0175000D03*
X0115000Y0165000D03*
X0115000Y0155000D03*
X0115000Y0145000D03*
D13*
X0050000Y0157031D02*
X0050000Y0162969D01*
X0040000Y0162969D02*
X0040000Y0157031D01*
X0030000Y0157031D02*
X0030000Y0162969D01*
X0020000Y0162969D02*
X0020000Y0157031D01*
D14*
X0023937Y0242795D02*
X0016063Y0242795D01*
X0038898Y0251063D02*
X0038898Y0258937D01*
X0023937Y0266811D02*
X0016063Y0266811D01*
D15*
X0050000Y0245000D03*
X0090000Y0225000D03*
X0100000Y0225000D03*
X0110000Y0225000D03*
X0140000Y0225000D03*
X0180000Y0225000D03*
X0200000Y0225000D03*
X0180000Y0265000D03*
X0230000Y0265000D03*
X0255000Y0175000D03*
X0275000Y0175000D03*
X0285000Y0145000D03*
X0255000Y0145000D03*
X0205000Y0145000D03*
X0205000Y0155000D03*
X0205000Y0165000D03*
X0175000Y0155000D03*
X0165000Y0155000D03*
X0165000Y0165000D03*
X0175000Y0175000D03*
X0155000Y0145000D03*
X0135000Y0135000D03*
X0135000Y0155000D03*
X0135000Y0175000D03*
X0185000Y0135000D03*
X0175000Y0085000D03*
X0165000Y0075000D03*
X0165000Y0065000D03*
X0175000Y0065000D03*
X0185000Y0045000D03*
X0205000Y0055000D03*
X0205000Y0065000D03*
X0205000Y0075000D03*
X0255000Y0085000D03*
X0275000Y0085000D03*
X0285000Y0055000D03*
X0255000Y0055000D03*
X0155000Y0055000D03*
X0135000Y0045000D03*
X0135000Y0065000D03*
X0135000Y0085000D03*
X0085000Y0090000D03*
X0085000Y0105000D03*
X0065000Y0090000D03*
X0055000Y0105000D03*
X0040000Y0140000D03*
X0020000Y0140000D03*
X0090000Y0265000D03*
X0100000Y0265000D03*
X0110000Y0265000D03*
D16*
X0030000Y0030000D02*
X0055000Y0005000D01*
X0260000Y0005000D01*
X0285000Y0030000D01*
X0285000Y0055000D01*
X0285000Y0145000D01*
X0285000Y0195000D01*
X0275000Y0205000D02*
X0275000Y0175000D01*
X0275000Y0085000D01*
X0275000Y0035000D01*
X0255000Y0015000D01*
X0060000Y0015000D01*
X0040000Y0035000D01*
X0040000Y0070000D01*
X0055000Y0085000D01*
X0060000Y0085000D01*
X0065000Y0090000D01*
X0065000Y0135000D01*
X0085000Y0155000D01*
X0105000Y0155000D01*
X0105000Y0145000D02*
X0090000Y0145000D01*
X0075000Y0130000D01*
X0075000Y0080000D01*
X0070000Y0075000D01*
X0060000Y0075000D01*
X0050000Y0065000D01*
X0050000Y0040000D01*
X0065000Y0025000D01*
X0090000Y0025000D01*
X0250000Y0025000D01*
X0265000Y0040000D01*
X0265000Y0095000D01*
X0235000Y0095000D01*
X0225000Y0095000D02*
X0185000Y0095000D01*
X0185000Y0050000D01*
X0185000Y0045000D01*
X0185000Y0040000D01*
X0175000Y0040000D02*
X0175000Y0065000D01*
X0175000Y0085000D01*
X0175000Y0155000D01*
X0175000Y0175000D01*
X0175000Y0195000D01*
X0155000Y0215000D01*
X0120000Y0215000D01*
X0110000Y0225000D01*
X0100000Y0225000D02*
X0100000Y0220000D01*
X0115000Y0205000D01*
X0150000Y0205000D01*
X0165000Y0190000D01*
X0165000Y0165000D01*
X0165000Y0155000D01*
X0165000Y0085000D01*
X0165000Y0075000D01*
X0165000Y0065000D01*
X0165000Y0040000D01*
X0155000Y0040000D02*
X0155000Y0055000D01*
X0155000Y0060000D01*
X0155000Y0095000D01*
X0115000Y0095000D01*
X0115000Y0085000D02*
X0135000Y0085000D01*
X0125000Y0075000D02*
X0135000Y0065000D01*
X0125000Y0075000D02*
X0115000Y0075000D01*
X0105000Y0065000D02*
X0100000Y0065000D01*
X0085000Y0080000D01*
X0085000Y0090000D01*
X0085000Y0105000D02*
X0100000Y0105000D01*
X0105000Y0100000D01*
X0105000Y0095000D01*
X0135000Y0135000D02*
X0125000Y0145000D01*
X0115000Y0145000D01*
X0125000Y0165000D02*
X0135000Y0155000D01*
X0125000Y0165000D02*
X0115000Y0165000D01*
X0115000Y0175000D02*
X0135000Y0175000D01*
X0115000Y0185000D02*
X0115000Y0195000D01*
X0145000Y0195000D01*
X0155000Y0185000D01*
X0155000Y0145000D01*
X0155000Y0095000D01*
X0165000Y0075000D02*
X0165000Y0065000D01*
X0185000Y0095000D02*
X0185000Y0135000D01*
X0185000Y0185000D01*
X0225000Y0185000D01*
X0235000Y0185000D02*
X0265000Y0185000D01*
X0265000Y0095000D01*
X0255000Y0085000D02*
X0235000Y0085000D01*
X0225000Y0075000D02*
X0205000Y0075000D01*
X0205000Y0065000D02*
X0225000Y0065000D01*
X0225000Y0055000D02*
X0205000Y0055000D01*
X0235000Y0055000D02*
X0255000Y0055000D01*
X0255000Y0145000D02*
X0235000Y0145000D01*
X0225000Y0145000D02*
X0205000Y0145000D01*
X0205000Y0155000D02*
X0225000Y0155000D01*
X0225000Y0165000D02*
X0205000Y0165000D01*
X0185000Y0185000D02*
X0185000Y0200000D01*
X0160000Y0225000D01*
X0140000Y0225000D01*
X0115000Y0195000D02*
X0090000Y0195000D01*
X0090000Y0225000D01*
X0090000Y0195000D02*
X0055000Y0160000D01*
X0050000Y0160000D01*
X0040000Y0160000D02*
X0040000Y0253898D01*
X0038898Y0255000D01*
X0040000Y0256102D01*
X0040000Y0265000D01*
X0040000Y0266811D01*
X0020000Y0266811D01*
X0040000Y0266811D02*
X0040000Y0275000D01*
X0055000Y0290000D01*
X0100000Y0290000D01*
X0110000Y0280000D01*
X0110000Y0265000D01*
X0180000Y0265000D01*
X0230000Y0265000D01*
X0200000Y0225000D02*
X0200000Y0220000D01*
X0205000Y0215000D01*
X0265000Y0215000D01*
X0275000Y0205000D01*
X0265000Y0200000D02*
X0265000Y0185000D01*
X0255000Y0175000D02*
X0235000Y0175000D01*
X0260000Y0205000D02*
X0265000Y0200000D01*
X0260000Y0205000D02*
X0195000Y0205000D01*
X0180000Y0220000D01*
X0180000Y0225000D01*
X0105000Y0185000D02*
X0100000Y0185000D01*
X0055000Y0140000D01*
X0040000Y0140000D01*
X0040000Y0160000D01*
X0030000Y0160000D02*
X0030000Y0175000D01*
X0020000Y0185000D01*
X0020000Y0242795D01*
X0050000Y0245000D02*
X0050000Y0270000D01*
X0055000Y0275000D01*
X0060000Y0275000D01*
X0070000Y0275000D02*
X0080000Y0275000D01*
X0090000Y0265000D01*
X0100000Y0265000D01*
X0020000Y0160000D02*
X0020000Y0140000D01*
X0055000Y0140000D02*
X0055000Y0105000D01*
X0055000Y0100000D01*
X0030000Y0075000D01*
X0030000Y0030000D01*
X0090000Y0025000D02*
X0090000Y0040000D01*
X0105000Y0055000D01*
X0115000Y0055000D02*
X0125000Y0055000D01*
X0135000Y0045000D01*
D17*
X0070000Y0275000D02*
X0060000Y0275000D01*
M02*
