%
M48
M72
T24C0.02400
T36C0.03600
T39C0.03900
T110C0.11000
%
T24
X65000Y90000
X55000Y105000
X85000Y105000
X85000Y90000
X135000Y85000
X135000Y65000
X155000Y55000
X165000Y65000
X165000Y75000
X175000Y65000
X175000Y85000
X205000Y75000
X205000Y65000
X205000Y55000
X185000Y45000
X135000Y45000
X135000Y135000
X155000Y145000
X165000Y155000
X165000Y165000
X175000Y155000
X175000Y175000
X205000Y165000
X205000Y155000
X205000Y145000
X185000Y135000
X135000Y155000
X135000Y175000
X140000Y225000
X110000Y225000
X100000Y225000
X100000Y265000
X90000Y265000
X110000Y265000
X180000Y265000
X180000Y225000
X200000Y225000
X230000Y265000
X255000Y175000
X275000Y175000
X285000Y145000
X255000Y145000
X255000Y85000
X275000Y85000
X285000Y55000
X255000Y55000
X40000Y140000
X20000Y140000
X20000Y220000
T36
X60000Y275000
X70000Y275000
T39
X90000Y250000
X90000Y240000
X100000Y240000
X100000Y250000
X110000Y250000
X110000Y240000
X120000Y240000
X120000Y250000
X130000Y250000
X130000Y240000
X140000Y240000
X140000Y250000
X150000Y250000
X150000Y240000
X160000Y240000
X160000Y250000
X170000Y250000
X170000Y240000
X180000Y240000
X180000Y250000
X190000Y250000
X190000Y240000
X200000Y240000
X200000Y250000
X210000Y250000
X210000Y240000
X220000Y240000
X220000Y250000
X230000Y250000
X230000Y240000
X240000Y240000
X240000Y250000
X250000Y250000
X250000Y240000
X260000Y240000
X260000Y250000
X270000Y250000
X270000Y240000
X280000Y240000
X280000Y250000
X235000Y185000
X225000Y185000
X225000Y175000
X225000Y165000
X225000Y155000
X235000Y155000
X235000Y165000
X235000Y175000
X235000Y145000
X225000Y145000
X225000Y95000
X235000Y95000
X235000Y85000
X235000Y75000
X235000Y65000
X225000Y65000
X225000Y75000
X225000Y85000
X225000Y55000
X235000Y55000
X115000Y55000
X115000Y65000
X115000Y75000
X115000Y85000
X115000Y95000
X105000Y95000
X105000Y85000
X105000Y75000
X105000Y65000
X105000Y55000
X105000Y145000
X105000Y155000
X105000Y165000
X105000Y175000
X105000Y185000
X115000Y185000
X115000Y175000
X115000Y165000
X115000Y155000
X115000Y145000
X50000Y160000
X40000Y160000
X30000Y160000
X20000Y160000
X20000Y242795
X38898Y255000
X20000Y266811
T110
X70827Y52087
X70827Y245000
X299173Y245000
X299173Y52087
M30
